PathFileType	4	(X/Y/Z)	C:/Users/opensim2020/Desktop/walking_exp_matlab/subject06_walking11_run_cyclic.trc	
DataRate	CameraRate	NumFrames	NumMarkers	Units	OrigDataRate	OrigDataStartFrame	OrigNumFrames	
100.00	100.00	7	46	mm	100.00	248	66	
Frame#	Time	LKNE			RKNE			RFRM			RWRA			RWRB			RELB			RUPA			RSHO			LWRA			RFIN			RFHD			CLAV			RASI			RTHI			LSHO			LTHI			RBHD			C7			LTIB			LANK			LTOE			LBHD			RTIB			RBAK			LHEE			RANK			STRN			RHEE			RTOE			T10			LUPA			LFHD			LPSI			RPSI			LASI			LFRM			LWRB			LFIN			LELB			*39			*40			*41			*42			*43			*44			*45			
		X1	Y1	Z1	X2	Y2	Z2	X3	Y3	Z3	X4	Y4	Z4	X5	Y5	Z5	X6	Y6	Z6	X7	Y7	Z7	X8	Y8	Z8	X9	Y9	Z9	X10	Y10	Z10	X11	Y11	Z11	X12	Y12	Z12	X13	Y13	Z13	X14	Y14	Z14	X15	Y15	Z15	X16	Y16	Z16	X17	Y17	Z17	X18	Y18	Z18	X19	Y19	Z19	X20	Y20	Z20	X21	Y21	Z21	X22	Y22	Z22	X23	Y23	Z23	X24	Y24	Z24	X25	Y25	Z25	X26	Y26	Z26	X27	Y27	Z27	X28	Y28	Z28	X29	Y29	Z29	X30	Y30	Z30	X31	Y31	Z31	X32	Y32	Z32	X33	Y33	Z33	X34	Y34	Z34	X35	Y35	Z35	X36	Y36	Z36	X37	Y37	Z37	X38	Y38	Z38	X39	Y39	Z39	X40	Y40	Z40	X41	Y41	Z41	X42	Y42	Z42	X43	Y43	Z43	X44	Y44	Z44	X45	Y45	Z45	X46	Y46	Z46	

34	0.330	104.74323	388.81366	484.48691	350.21930	759.70557	613.74048	482.82397	429.24249	1192.84302	414.54477	551.65308	1169.92542	454.93152	537.07526	1119.37439	488.34381	360.75778	1267.25269	437.08038	416.84348	1343.99353	340.35168	566.22125	1424.58215	73.25305	715.22003	1212.47412	439.75183	618.70435	1123.05457	268.98425	655.74738	1651.16565	208.88733	652.97742	1364.23962	326.23160	601.54297	966.03424	383.15216	681.49957	706.17053	43.34440	628.11499	1403.49780	72.64904	438.19986	640.67261	251.05666	531.96283	1586.44031	176.16608	550.09772	1447.58228	121.43044	211.26352	298.17438	163.76424	103.68604	166.57768	218.11008	155.99908	34.05523	122.33643	546.95825	1589.73743	340.60190	699.61438	364.74210	235.86713	445.24146	1300.98413	202.12398	67.99977	195.15695	293.87714	629.91455	192.67424	218.70837	669.35645	1182.09656	251.45490	581.67419	180.86668	284.17929	762.80481	118.76707	194.93239	466.00021	1135.11023	-65.25407	614.49615	1235.37329	137.66911	671.25079	1660.16003	137.75586	449.74222	997.50372	303.17087	456.01965	1008.56323	114.78668	595.15820	935.30426	-20.96453	690.00934	1130.13953	79.71715	744.19476	1148.39612	131.25598	789.15198	1206.66663	-109.41663	600.13483	1141.68481				182.75803	560.49261	1687.26624															 
35	0.340	102.67821	416.16470	497.02051	350.03275	797.53723	622.01471	478.55447	464.17172	1203.53760	412.00626	587.87433	1181.60645	451.99411	572.96881	1130.85889	483.95966	394.89072	1277.45520	433.77023	453.31186	1354.08521	339.83139	604.34424	1433.03320	74.40752	754.78888	1226.60828	437.92941	654.78766	1134.95776	271.21216	695.08691	1658.66467	209.55608	691.32642	1372.99597	323.75903	642.47998	975.32715	382.54587	721.31573	716.95618	44.98056	667.81891	1412.91321	71.07537	472.36478	651.40430	252.44263	570.41937	1594.91016	176.48927	589.14984	1455.90186	115.05090	237.07446	312.31631	156.58186	128.59416	179.95422	215.98845	163.32112	42.03650	123.77204	585.50916	1598.89026	336.21719	756.60266	365.62131	233.90511	485.99426	1310.06042	193.45395	96.42673	212.98051	285.64319	704.79852	188.02580	219.00824	709.28229	1191.18945	241.76564	658.40570	175.48610	274.75055	841.88068	118.48175	192.22520	506.04272	1143.28394	-63.32119	656.80078	1245.27966	139.68924	710.21204	1668.15747	136.13239	493.47336	1005.41528	300.30496	499.15143	1018.45917	114.45266	638.54919	943.43036	-17.83994	731.32709	1141.88550	83.18036	783.99939	1162.94714	134.60358	827.35126	1222.83521	-107.94231	642.50049	1150.67578				184.88165	599.78607	1696.10889															 
36	0.350	101.36879	445.97339	508.63202	349.72723	834.83478	627.56696	474.50833	499.94910	1212.90393	409.59341	624.70148	1191.98730	449.29346	609.68365	1141.10718	479.99796	429.77890	1286.23132	430.75784	490.35672	1362.89697	339.41669	642.91162	1440.42932	75.23756	794.25079	1239.37537	436.14551	691.66321	1145.45264	272.27548	733.74237	1664.62097	210.04761	729.53882	1380.75293	322.33917	683.40686	983.32593	381.67999	759.86987	724.44568	46.60572	706.94391	1421.60181	69.39653	507.87558	661.38574	253.65976	608.90576	1602.23840	176.99779	627.97742	1463.27222	111.19316	265.30756	325.63065	150.89719	156.00336	194.11661	212.06148	174.35966	51.92547	125.07471	624.10156	1606.70227	332.84052	812.01563	365.35944	232.14040	525.96338	1318.61963	186.06996	126.20576	230.08760	278.26913	777.24451	184.86311	219.30986	749.65173	1199.46069	233.28024	732.87653	171.57059	266.13733	918.16052	118.79926	190.03963	546.31848	1150.87085	-61.74421	697.90314	1254.74487	141.43208	749.34863	1674.78528	133.78897	537.13086	1012.74152	297.39380	541.66711	1027.42505	114.11242	681.33759	950.85193	-15.34395	772.29230	1152.55615	86.30651	823.23303	1175.97888	137.37848	865.33905	1237.15356	-106.52695	684.00696	1158.90015				186.61987	639.22498	1703.65295															 
37	0.360	100.47392	479.15784	518.34833	349.16125	871.66461	629.84869	470.95169	536.37988	1220.82788	407.39474	662.24512	1201.05737	446.71329	647.03455	1149.96765	476.54489	465.28271	1293.34912	428.32373	528.11584	1370.27026	339.24023	681.83191	1446.60400	75.67094	833.64783	1250.57422	434.20432	729.17310	1154.59705	274.09961	773.07648	1669.88855	210.41441	767.87872	1387.38367	321.61838	723.91730	989.73346	380.65897	797.15869	728.27277	48.18586	745.52985	1429.35388	67.86910	544.98126	670.33221	254.90334	647.48639	1608.28589	177.54314	666.95691	1469.12952	109.23361	294.90942	337.82159	145.71188	185.16750	208.89804	204.83273	189.83073	63.88943	126.26884	662.77045	1613.09460	329.73264	864.41095	364.58853	230.83548	566.07184	1326.13000	181.11678	158.06940	247.05661	272.15283	846.60980	182.62622	217.98415	788.58136	1206.35767	226.19942	804.27307	168.84796	258.48526	991.13715	119.23663	188.41960	587.12201	1157.75806	-60.86802	738.27380	1263.38135	142.89944	788.43231	1680.31848	130.95990	580.60120	1019.31189	294.89880	583.03949	1034.49011	113.68929	723.50604	957.39337	-13.28410	812.86969	1161.91626	89.00585	862.00525	1187.37537	139.80176	903.16852	1249.56873	-105.59698	725.01056	1166.24890				188.10895	678.55469	1709.69189															 
38	0.370	99.21087	515.53448	525.51141	348.20483	907.83453	629.06323	467.88577	573.35071	1227.07800	405.51083	700.30933	1208.74170	444.35056	685.03137	1157.30261	473.78461	501.46301	1298.68408	426.63916	566.33154	1376.09717	339.44003	720.96472	1451.49658	75.86212	872.87561	1260.15027	432.29260	767.46991	1162.25562	275.10617	811.59949	1674.58850	210.76634	806.36035	1392.86938	321.42847	764.19751	994.78833	379.98880	833.47925	728.84338	49.41095	783.88098	1436.17578	66.48318	584.18793	677.04523	256.06030	686.17719	1613.34241	178.09419	705.18951	1473.82166	106.77631	327.90002	348.48584	142.50468	211.60251	225.88881	196.65211	210.97728	79.00503	127.44930	701.23834	1618.32764	326.63956	914.01703	362.83459	229.72198	605.82306	1332.12512	180.09596	186.80539	263.67911	267.13931	913.04523	180.68475	219.67722	829.64648	1212.31580	220.43912	872.71643	167.21123	252.07372	1060.50574	119.43278	187.52687	627.50836	1164.05090	-60.34502	777.96729	1270.78430	144.19386	827.27356	1685.23071	128.13744	623.62073	1025.03052	292.36737	623.96655	1039.27087	113.06580	765.34045	962.80652	-11.68455	853.11591	1169.84534	91.22865	900.57214	1197.11316	141.70064	940.90723	1260.15442	-105.11270	765.67395	1172.55054				189.52200	717.47192	1714.72827															 
39	0.380	97.51231	555.35919	529.96460	346.51993	942.78131	625.76575	465.37808	610.97546	1231.44983	403.95847	738.82098	1214.91272	442.15549	723.72046	1162.97925	471.79886	538.32391	1302.01440	425.43063	604.61884	1379.80383	339.90463	759.92908	1455.24036	75.84595	911.99164	1268.05396	430.33966	806.36017	1168.38831	276.27887	850.37244	1678.92261	211.18755	845.05267	1397.36536	321.53647	804.54877	998.63446	379.59662	868.57147	726.28540	50.20572	822.12231	1441.85754	65.50618	625.53552	680.83508	257.27771	725.03729	1617.57275	178.93800	743.23474	1477.69885	104.47261	362.77563	358.91220	140.58824	238.07021	243.25002	189.66748	239.14183	94.27386	128.68396	739.98737	1622.83850	323.62817	961.33197	359.92542	229.30908	645.07617	1336.45605	179.32645	213.60539	279.43134	262.84106	976.13593	178.90865	219.52730	869.37830	1216.95557	215.53087	937.42188	166.71309	247.12952	1125.95825	119.18841	187.20654	667.97589	1169.42957	-59.96610	817.25269	1276.64685	145.34317	865.86719	1689.79077	125.78898	666.10400	1029.81580	290.46106	664.47620	1042.10669	112.49278	806.76160	967.13458	-10.53445	893.08240	1176.37769	92.86048	939.08002	1205.17468	142.94331	978.48132	1269.01685	-104.75444	805.95752	1177.42688				190.76411	756.10095	1719.12329															 
40	0.390	95.92268	598.02295	532.20135	344.40869	976.03784	620.20477	463.52533	649.41595	1233.94629	402.81726	777.98633	1219.46082	439.79013	763.07385	1166.57715	470.53464	575.89740	1303.46301	425.03683	642.67114	1381.59985	340.58475	798.56873	1457.94336	75.58013	951.04382	1274.29077	428.47107	846.00543	1172.95496	277.65540	889.46936	1682.60938	211.53699	883.80273	1401.05005	321.50989	844.48627	1000.71588	379.34772	903.79669	721.54071	50.55707	860.50537	1446.35974	64.51415	668.66772	682.49689	258.49997	763.83002	1621.08923	179.66757	781.68243	1480.98120	102.69823	396.54538	370.09067	138.23102	267.71829	258.60327	183.86896	270.00986	108.77237	129.83679	778.39148	1626.58093	320.51379	1006.81738	356.03949	229.48792	684.42004	1339.12488	177.23770	242.39156	294.21539	259.59363	1035.66724	177.81537	218.60158	908.88263	1220.09473	211.83583	998.23511	166.88022	242.92976	1187.60791	119.15973	187.13809	708.27600	1173.62854	-60.08184	856.31763	1281.13013	146.36217	904.40002	1693.77148	124.22542	707.90576	1033.39929	289.19434	704.56104	1043.45361	111.96714	848.10248	970.60272	-9.70480	932.69440	1181.53418	93.91490	977.62048	1211.57788	144.18732	1016.86090	1275.92590	-104.58357	845.86279	1181.16724				192.05635	794.62195	1722.86621															 
